<svg width="926" height="852" viewBox="0 0 926 852" fill="none" xmlns="http://www.w3.org/2000/svg">
<rect x="-0.466965" y="2.00671" width="308.879" height="393.858" transform="matrix(0.718095 0.695945 -0.951578 0.307408 268.817 299.969)" stroke="#979191" stroke-opacity="0.17" stroke-width="4"/>
<rect x="-0.466965" y="2.00671" width="308.879" height="393.858" transform="matrix(0.718095 0.695945 -0.951578 0.307408 649.486 176.969)" stroke="#979191" stroke-opacity="0.17" stroke-width="4"/>
<rect x="-0.466965" y="2.00671" width="308.879" height="393.858" transform="matrix(0.718095 0.695945 -0.951578 0.307408 687.017 458.969)" stroke="#979191" stroke-opacity="0.17" stroke-width="4"/>
<rect x="-0.466965" y="2.00671" width="308.879" height="393.858" transform="matrix(0.718095 0.695945 -0.951578 0.307408 304.56 581.969)" stroke="#979191" stroke-opacity="0.17" stroke-width="4"/>
<rect x="-0.466965" y="2.00671" width="308.879" height="393.858" transform="matrix(0.718095 0.695945 -0.951578 0.307408 703.101 747.969)" stroke="#979191" stroke-opacity="0.17" stroke-width="4"/>
<rect x="-0.466965" y="2.00671" width="308.879" height="393.858" transform="matrix(0.718095 0.695945 -0.951578 0.307408 290.263 1.96872)" stroke="#979191" stroke-opacity="0.17" stroke-width="4"/>
</svg>
