<svg width="510" height="105" viewBox="0 0 510 105" fill="none" xmlns="http://www.w3.org/2000/svg">
<g filter="url(#filter0_d_28_1055)">
<rect x="30.6932" y="12.7321" width="28.5512" height="27.6679" transform="rotate(60 30.6932 12.7321)" stroke="#979191" stroke-opacity="0.56" stroke-width="4" shape-rendering="crispEdges"/>
</g>
<g filter="url(#filter1_d_28_1055)">
<rect x="46.6932" y="19.7321" width="28.5512" height="27.6679" transform="rotate(60 46.6932 19.7321)" stroke="#979191" stroke-opacity="0.56" stroke-width="4" shape-rendering="crispEdges"/>
</g>
<path d="M85.4531 46.0586C84.9714 46.0586 84.6198 46 84.3984 45.8828C84.1771 45.7526 84.0664 45.5573 84.0664 45.2969V24.3398H77.3867C77.1393 24.3398 76.9635 24.2552 76.8594 24.0859C76.7552 23.9167 76.7031 23.6562 76.7031 23.3047V22.7383C76.7031 22.3737 76.7552 22.1133 76.8594 21.957C76.9635 21.7878 77.1393 21.7031 77.3867 21.7031H93.6758C93.9232 21.7031 94.099 21.7878 94.2031 21.957C94.3073 22.1133 94.3594 22.3737 94.3594 22.7383V23.3047C94.3594 23.6562 94.3073 23.9167 94.2031 24.0859C94.099 24.2552 93.9232 24.3398 93.6758 24.3398H87.1328V45.2969C87.1328 45.8047 86.6641 46.0586 85.7266 46.0586H85.4531ZM101.645 46.1953C99.8737 46.1953 98.4414 45.7591 97.3477 44.8867C96.2539 44.0143 95.707 42.7188 95.707 41C95.707 39.1901 96.2604 37.8294 97.3672 36.918C98.474 35.9935 99.8216 35.401 101.41 35.1406C103.012 34.8672 104.952 34.7109 107.23 34.6719V33.0312C107.23 32.1589 106.931 31.4622 106.332 30.9414C105.746 30.4076 104.776 30.1406 103.422 30.1406C102.393 30.1406 101.488 30.2643 100.707 30.5117C99.9388 30.7461 99.2161 31.0326 98.5391 31.3711C98.2526 31.5143 98.0768 31.5859 98.0117 31.5859C97.8555 31.5859 97.6797 31.4753 97.4844 31.2539C97.3021 31.0195 97.1393 30.7591 96.9961 30.4727C96.8659 30.1862 96.8008 29.9779 96.8008 29.8477C96.8008 29.5482 97.1068 29.2227 97.7188 28.8711C98.3438 28.5195 99.1576 28.2266 100.16 27.9922C101.163 27.7578 102.211 27.6406 103.305 27.6406C105.479 27.6406 107.165 28.1159 108.363 29.0664C109.561 30.0169 110.16 31.3516 110.16 33.0703V40.8633C110.16 42.3737 110.225 43.4674 110.355 44.1445C110.499 44.8086 110.57 45.1732 110.57 45.2383C110.57 45.5247 110.349 45.7331 109.906 45.8633C109.477 45.9805 109.073 46.0391 108.695 46.0391C108.383 46.0391 108.148 45.8633 107.992 45.5117C107.849 45.1602 107.706 44.6523 107.562 43.9883L107.484 43.5977C106.768 44.3919 105.922 45.0234 104.945 45.4922C103.982 45.9609 102.882 46.1953 101.645 46.1953ZM101.801 43.6758C102.947 43.6758 103.923 43.4674 104.73 43.0508C105.538 42.6341 106.371 42.0417 107.23 41.2734V37.1719C105.512 37.1849 104.099 37.2565 102.992 37.3867C101.885 37.5169 100.915 37.849 100.082 38.3828C99.2487 38.9036 98.832 39.7174 98.832 40.8242C98.832 41.7487 99.0794 42.4583 99.5742 42.9531C100.082 43.4349 100.824 43.6758 101.801 43.6758ZM115.141 46.0586C114.607 46.0586 114.223 46.013 113.988 45.9219C113.767 45.8307 113.656 45.681 113.656 45.4727C113.656 45.3164 113.747 45.1081 113.93 44.8477L119.555 36.7031L114.34 28.9688C114.171 28.7083 114.086 28.5065 114.086 28.3633C114.086 28.1549 114.203 28.0052 114.438 27.9141C114.672 27.8229 115.076 27.7773 115.648 27.7773H115.98C116.371 27.7773 116.684 27.8164 116.918 27.8945C117.152 27.9596 117.341 28.0964 117.484 28.3047L120.785 33.2461C120.98 33.5586 121.215 33.9688 121.488 34.4766C121.54 34.3854 121.632 34.2292 121.762 34.0078C121.892 33.7865 122.048 33.5326 122.23 33.2461L125.551 28.2461C125.759 27.9336 126.28 27.7773 127.113 27.7773H127.25C127.784 27.7773 128.161 27.8229 128.383 27.9141C128.604 28.0052 128.715 28.1549 128.715 28.3633C128.715 28.5195 128.624 28.7214 128.441 28.9688L123.207 36.6055L128.812 44.8477C129.008 45.1341 129.105 45.3424 129.105 45.4727C129.105 45.668 128.982 45.8177 128.734 45.9219C128.487 46.013 128.077 46.0586 127.504 46.0586H127.191C126.788 46.0586 126.469 46.026 126.234 45.9609C126.013 45.8828 125.837 45.7396 125.707 45.5312L122.016 40.0234C121.807 39.7109 121.645 39.4505 121.527 39.2422C121.41 39.0208 121.332 38.8776 121.293 38.8125C121.267 38.8646 121.189 39.0013 121.059 39.2227C120.941 39.431 120.772 39.6979 120.551 40.0234L116.82 45.5703C116.599 45.8958 116.078 46.0586 115.258 46.0586H115.141ZM134.555 46.0586C133.617 46.0586 133.148 45.8047 133.148 45.2969V22.7383C133.148 22.3737 133.233 22.1133 133.402 21.957C133.572 21.7878 133.839 21.7031 134.203 21.7031H140.043C142.816 21.7031 144.9 22.1914 146.293 23.168C147.699 24.1445 148.402 25.7005 148.402 27.8359C148.402 29.2812 148.051 30.4987 147.348 31.4883C146.658 32.4648 145.681 33.2005 144.418 33.6953V33.832C145.095 34.0664 145.648 34.5221 146.078 35.1992C146.521 35.8633 147.009 36.8529 147.543 38.168L150.258 45.0234C150.323 45.2578 150.355 45.4206 150.355 45.5117C150.355 45.8763 149.867 46.0586 148.891 46.0586H148.539C148.188 46.0586 147.882 46.013 147.621 45.9219C147.374 45.8177 147.217 45.681 147.152 45.5117L144.516 38.6953C144.177 37.8099 143.78 37.1198 143.324 36.625C142.868 36.1302 142.328 35.7852 141.703 35.5898C141.078 35.3945 140.29 35.2969 139.34 35.2969H136.215V45.2969C136.215 45.8047 135.753 46.0586 134.828 46.0586H134.555ZM140.785 32.6602C141.605 32.6602 142.354 32.4648 143.031 32.0742C143.721 31.6836 144.262 31.1628 144.652 30.5117C145.056 29.8477 145.258 29.1445 145.258 28.4023C145.258 27.0352 144.841 26.0195 144.008 25.3555C143.174 24.6784 142.022 24.3398 140.551 24.3398H136.215V32.6602H140.785ZM161.43 46.1953C158.552 46.1953 156.41 45.4466 155.004 43.9492C153.611 42.4388 152.914 40.1341 152.914 37.0352C152.914 33.9622 153.598 31.6315 154.965 30.043C156.332 28.4414 158.344 27.6406 161 27.6406C163.37 27.6406 165.154 28.4089 166.352 29.9453C167.562 31.4818 168.168 33.7344 168.168 36.7031C168.168 36.8333 168.096 37.0156 167.953 37.25C167.823 37.4714 167.66 37.6732 167.465 37.8555C167.283 38.0247 167.126 38.1094 166.996 38.1094H156.039C156.182 40.0495 156.677 41.4688 157.523 42.3672C158.383 43.2526 159.672 43.6953 161.391 43.6953C162.354 43.6953 163.181 43.5781 163.871 43.3438C164.574 43.1094 165.251 42.8229 165.902 42.4844C165.967 42.4583 166.065 42.4128 166.195 42.3477C166.326 42.2826 166.417 42.25 166.469 42.25C166.612 42.25 166.775 42.3672 166.957 42.6016C167.152 42.8229 167.315 43.0768 167.445 43.3633C167.589 43.6367 167.66 43.8385 167.66 43.9688C167.66 44.2552 167.374 44.5742 166.801 44.9258C166.228 45.2773 165.46 45.5768 164.496 45.8242C163.546 46.0716 162.523 46.1953 161.43 46.1953ZM165.062 35.6094C165.062 31.9635 163.676 30.1406 160.902 30.1406C157.921 30.1406 156.299 31.9635 156.039 35.6094H165.062ZM177.387 46.1953C175.616 46.1953 174.184 45.7591 173.09 44.8867C171.996 44.0143 171.449 42.7188 171.449 41C171.449 39.1901 172.003 37.8294 173.109 36.918C174.216 35.9935 175.564 35.401 177.152 35.1406C178.754 34.8672 180.694 34.7109 182.973 34.6719V33.0312C182.973 32.1589 182.673 31.4622 182.074 30.9414C181.488 30.4076 180.518 30.1406 179.164 30.1406C178.135 30.1406 177.23 30.2643 176.449 30.5117C175.681 30.7461 174.958 31.0326 174.281 31.3711C173.995 31.5143 173.819 31.5859 173.754 31.5859C173.598 31.5859 173.422 31.4753 173.227 31.2539C173.044 31.0195 172.882 30.7591 172.738 30.4727C172.608 30.1862 172.543 29.9779 172.543 29.8477C172.543 29.5482 172.849 29.2227 173.461 28.8711C174.086 28.5195 174.9 28.2266 175.902 27.9922C176.905 27.7578 177.953 27.6406 179.047 27.6406C181.221 27.6406 182.908 28.1159 184.105 29.0664C185.303 30.0169 185.902 31.3516 185.902 33.0703V40.8633C185.902 42.3737 185.967 43.4674 186.098 44.1445C186.241 44.8086 186.312 45.1732 186.312 45.2383C186.312 45.5247 186.091 45.7331 185.648 45.8633C185.219 45.9805 184.815 46.0391 184.438 46.0391C184.125 46.0391 183.891 45.8633 183.734 45.5117C183.591 45.1602 183.448 44.6523 183.305 43.9883L183.227 43.5977C182.51 44.3919 181.664 45.0234 180.688 45.4922C179.724 45.9609 178.624 46.1953 177.387 46.1953ZM177.543 43.6758C178.689 43.6758 179.665 43.4674 180.473 43.0508C181.28 42.6341 182.113 42.0417 182.973 41.2734V37.1719C181.254 37.1849 179.841 37.2565 178.734 37.3867C177.628 37.5169 176.658 37.849 175.824 38.3828C174.991 38.9036 174.574 39.7174 174.574 40.8242C174.574 41.7487 174.822 42.4583 175.316 42.9531C175.824 43.4349 176.566 43.6758 177.543 43.6758ZM197.23 46.1953C195.876 46.1953 194.691 45.8047 193.676 45.0234C192.66 44.2292 191.872 43.1289 191.312 41.7227C190.766 40.3164 190.492 38.7214 190.492 36.9375C190.492 34.9714 190.785 33.2917 191.371 31.8984C191.97 30.4922 192.803 29.431 193.871 28.7148C194.939 27.9987 196.169 27.6406 197.562 27.6406C198.565 27.6406 199.451 27.7904 200.219 28.0898C201 28.3893 201.768 28.8255 202.523 29.3984V20.6484C202.523 20.1406 202.979 19.8867 203.891 19.8867H204.047C204.971 19.8867 205.434 20.1406 205.434 20.6484V40.8633C205.434 42.3737 205.505 43.4674 205.648 44.1445C205.792 44.8086 205.863 45.1732 205.863 45.2383C205.863 45.5247 205.642 45.7331 205.199 45.8633C204.77 45.9805 204.366 46.0391 203.988 46.0391C203.728 46.0391 203.52 45.9154 203.363 45.668C203.207 45.4206 203.096 45.1732 203.031 44.9258C202.979 44.6654 202.888 44.2227 202.758 43.5977C201.104 45.3294 199.262 46.1953 197.23 46.1953ZM197.836 43.6758C198.604 43.6758 199.398 43.4674 200.219 43.0508C201.052 42.6341 201.82 42.0417 202.523 41.2734V31.7617C201.273 30.7201 199.848 30.1992 198.246 30.1992C196.697 30.2383 195.525 30.8047 194.73 31.8984C193.949 32.9922 193.559 34.5807 193.559 36.6641C193.559 38.9036 193.923 40.6354 194.652 41.8594C195.395 43.0703 196.456 43.6758 197.836 43.6758ZM213.207 53.2266C212.452 53.2266 212.074 53.0378 212.074 52.6602C212.074 52.569 212.126 52.3802 212.23 52.0938L215.141 45.0234L209.066 28.8125C209.053 28.7604 209.034 28.6888 209.008 28.5977C208.982 28.4935 208.969 28.4154 208.969 28.3633C208.969 28.181 209.092 28.0378 209.34 27.9336C209.587 27.8294 209.965 27.7773 210.473 27.7773H210.746C211.527 27.7773 211.99 27.9596 212.133 28.3242L215.668 37.7383C215.98 38.5586 216.352 39.724 216.781 41.2344H216.84L217.25 39.9453C217.315 39.75 217.426 39.418 217.582 38.9492C217.738 38.4674 217.882 38.0638 218.012 37.7383L221.469 28.3242C221.586 27.9596 222.061 27.7773 222.895 27.7773H223.012C223.923 27.7773 224.379 27.9727 224.379 28.3633C224.379 28.4544 224.346 28.6107 224.281 28.832L215.375 52.5039C215.167 52.9857 214.62 53.2266 213.734 53.2266H213.207ZM228.227 46.0586C227.745 46.0586 227.393 46 227.172 45.8828C226.951 45.7526 226.84 45.5573 226.84 45.2969V43.0117C226.84 42.5039 227.302 42.25 228.227 42.25H228.812C229.737 42.25 230.199 42.5039 230.199 43.0117V45.2969C230.199 45.5573 230.089 45.7526 229.867 45.8828C229.646 46 229.294 46.0586 228.812 46.0586H228.227ZM242.328 46.1953C239.451 46.1953 237.302 45.4596 235.883 43.9883C234.477 42.5039 233.773 40.1211 233.773 36.8398C233.773 33.5195 234.561 31.1562 236.137 29.75C237.712 28.3438 239.672 27.6406 242.016 27.6406C242.888 27.6406 243.728 27.7188 244.535 27.875C245.342 28.0182 245.993 28.2135 246.488 28.4609C246.983 28.7083 247.23 28.9688 247.23 29.2422C247.23 29.4245 247.165 29.6654 247.035 29.9648C246.918 30.2643 246.768 30.5312 246.586 30.7656C246.417 30.987 246.26 31.0977 246.117 31.0977C246.078 31.0977 246.02 31.0846 245.941 31.0586C245.863 31.0195 245.792 30.987 245.727 30.9609C244.555 30.4141 243.292 30.1406 241.938 30.1406C240.336 30.1406 239.099 30.668 238.227 31.7227C237.354 32.7643 236.918 34.444 236.918 36.7617C236.918 38.4023 237.094 39.7305 237.445 40.7461C237.797 41.7487 238.363 42.4909 239.145 42.9727C239.939 43.4544 240.993 43.6953 242.309 43.6953C243.754 43.6953 245.056 43.3958 246.215 42.7969C246.332 42.7708 246.417 42.7448 246.469 42.7188C246.534 42.6797 246.579 42.6602 246.605 42.6602C246.749 42.6602 246.911 42.7708 247.094 42.9922C247.276 43.2135 247.432 43.4674 247.562 43.7539C247.706 44.0404 247.777 44.2682 247.777 44.4375C247.777 44.7109 247.53 44.9844 247.035 45.2578C246.54 45.5312 245.87 45.7591 245.023 45.9414C244.19 46.1107 243.292 46.1953 242.328 46.1953ZM258.773 46.1953C256.156 46.1953 254.158 45.4141 252.777 43.8516C251.41 42.276 250.727 39.9909 250.727 36.9961C250.727 34.0013 251.423 31.6966 252.816 30.082C254.21 28.4544 256.195 27.6406 258.773 27.6406C261.326 27.6406 263.279 28.4479 264.633 30.0625C265.987 31.6641 266.664 33.9753 266.664 36.9961C266.664 40.0039 265.993 42.2891 264.652 43.8516C263.324 45.4141 261.365 46.1953 258.773 46.1953ZM258.676 43.6953C260.368 43.6953 261.618 43.1484 262.426 42.0547C263.233 40.9479 263.637 39.2422 263.637 36.9375C263.637 34.6198 263.233 32.9076 262.426 31.8008C261.618 30.694 260.368 30.1406 258.676 30.1406C256.996 30.1406 255.759 30.694 254.965 31.8008C254.171 32.8945 253.773 34.6068 253.773 36.9375C253.773 39.2552 254.164 40.9609 254.945 42.0547C255.74 43.1484 256.983 43.6953 258.676 43.6953ZM271.742 46.0586C271.26 46.0586 270.909 46 270.688 45.8828C270.466 45.7526 270.355 45.5573 270.355 45.2969V43.0117C270.355 42.5039 270.818 42.25 271.742 42.25H272.328C273.253 42.25 273.715 42.5039 273.715 43.0117V45.2969C273.715 45.5573 273.604 45.7526 273.383 45.8828C273.161 46 272.81 46.0586 272.328 46.0586H271.742Z" fill="white"/>
<path d="M283.754 46.1953C281.983 46.1953 280.596 45.7005 279.594 44.7109C278.591 43.7083 278.09 42.3281 278.09 40.5703V28.5391C278.09 28.0312 278.559 27.7773 279.496 27.7773H279.633C280.557 27.7773 281.02 28.0312 281.02 28.5391V40.2969C281.02 41.3646 281.326 42.1979 281.938 42.7969C282.562 43.3828 283.435 43.6758 284.555 43.6758C285.336 43.6758 286.117 43.4609 286.898 43.0312C287.68 42.5885 288.357 41.9896 288.93 41.2344V28.5391C288.93 28.0312 289.392 27.7773 290.316 27.7773H290.453C291.391 27.7773 291.859 28.0312 291.859 28.5391V40.8633C291.859 42.3737 291.924 43.4674 292.055 44.1445C292.185 44.8086 292.25 45.1732 292.25 45.2383C292.25 45.5247 292.035 45.7331 291.605 45.8633C291.176 45.9805 290.772 46.0391 290.395 46.0391C290.069 46.0391 289.828 45.8568 289.672 45.4922C289.516 45.1146 289.398 44.7305 289.32 44.3398C289.255 43.9492 289.21 43.7018 289.184 43.5977C288.454 44.418 287.608 45.056 286.645 45.5117C285.694 45.9674 284.73 46.1953 283.754 46.1953ZM299.496 46.0586C298.559 46.0586 298.09 45.8047 298.09 45.2969V20.6484C298.09 20.1406 298.559 19.8867 299.496 19.8867H299.633C300.557 19.8867 301.02 20.1406 301.02 20.6484V36.1758H301.156L307.797 28.2461C308.044 27.9336 308.656 27.7773 309.633 27.7773H309.75C310.154 27.7773 310.46 27.8164 310.668 27.8945C310.876 27.9727 310.98 28.0768 310.98 28.207C310.98 28.4023 310.863 28.6367 310.629 28.9102L304.164 36.5469L311.332 45.0234C311.527 45.2448 311.625 45.4271 311.625 45.5703C311.625 45.7656 311.514 45.8958 311.293 45.9609C311.072 46.026 310.681 46.0586 310.121 46.0586H309.965C309.483 46.0586 309.092 46.0326 308.793 45.9805C308.493 45.9284 308.259 45.8047 308.09 45.6094L301.156 37.3672H301.02V45.2969C301.02 45.8047 300.557 46.0586 299.633 46.0586H299.496Z" fill="white" fill-opacity="0.59"/>
<defs>
<filter id="filter0_d_28_1055" x="0" y="10" width="51.7009" height="52.0244" filterUnits="userSpaceOnUse" color-interpolation-filters="sRGB">
<feFlood flood-opacity="0" result="BackgroundImageFix"/>
<feColorMatrix in="SourceAlpha" type="matrix" values="0 0 0 0 0 0 0 0 0 0 0 0 0 0 0 0 0 0 127 0" result="hardAlpha"/>
<feOffset dy="4"/>
<feGaussianBlur stdDeviation="2"/>
<feComposite in2="hardAlpha" operator="out"/>
<feColorMatrix type="matrix" values="0 0 0 0 0 0 0 0 0 0 0 0 0 0 0 0 0 0 0.25 0"/>
<feBlend mode="normal" in2="BackgroundImageFix" result="effect1_dropShadow_28_1055"/>
<feBlend mode="normal" in="SourceGraphic" in2="effect1_dropShadow_28_1055" result="shape"/>
</filter>
<filter id="filter1_d_28_1055" x="16" y="17" width="51.7009" height="52.0244" filterUnits="userSpaceOnUse" color-interpolation-filters="sRGB">
<feFlood flood-opacity="0" result="BackgroundImageFix"/>
<feColorMatrix in="SourceAlpha" type="matrix" values="0 0 0 0 0 0 0 0 0 0 0 0 0 0 0 0 0 0 127 0" result="hardAlpha"/>
<feOffset dy="4"/>
<feGaussianBlur stdDeviation="2"/>
<feComposite in2="hardAlpha" operator="out"/>
<feColorMatrix type="matrix" values="0 0 0 0 0 0 0 0 0 0 0 0 0 0 0 0 0 0 0.25 0"/>
<feBlend mode="normal" in2="BackgroundImageFix" result="effect1_dropShadow_28_1055"/>
<feBlend mode="normal" in="SourceGraphic" in2="effect1_dropShadow_28_1055" result="shape"/>
</filter>
</defs>
</svg>
