<svg width="244" height="35" viewBox="0 0 244 35" fill="none" xmlns="http://www.w3.org/2000/svg">
<path d="M9.45312 27.0586C8.97135 27.0586 8.61979 27 8.39844 26.8828C8.17708 26.7526 8.06641 26.5573 8.06641 26.2969V5.33984H1.38672C1.13932 5.33984 0.963542 5.25521 0.859375 5.08594C0.755208 4.91667 0.703125 4.65625 0.703125 4.30469V3.73828C0.703125 3.3737 0.755208 3.11328 0.859375 2.95703C0.963542 2.78776 1.13932 2.70312 1.38672 2.70312H17.6758C17.9232 2.70312 18.099 2.78776 18.2031 2.95703C18.3073 3.11328 18.3594 3.3737 18.3594 3.73828V4.30469C18.3594 4.65625 18.3073 4.91667 18.2031 5.08594C18.099 5.25521 17.9232 5.33984 17.6758 5.33984H11.1328V26.2969C11.1328 26.8047 10.6641 27.0586 9.72656 27.0586H9.45312ZM25.6445 27.1953C23.8737 27.1953 22.4414 26.7591 21.3477 25.8867C20.2539 25.0143 19.707 23.7188 19.707 22C19.707 20.1901 20.2604 18.8294 21.3672 17.918C22.474 16.9935 23.8216 16.401 25.4102 16.1406C27.0117 15.8672 28.9518 15.7109 31.2305 15.6719V14.0312C31.2305 13.1589 30.931 12.4622 30.332 11.9414C29.7461 11.4076 28.776 11.1406 27.4219 11.1406C26.3932 11.1406 25.4883 11.2643 24.707 11.5117C23.9388 11.7461 23.2161 12.0326 22.5391 12.3711C22.2526 12.5143 22.0768 12.5859 22.0117 12.5859C21.8555 12.5859 21.6797 12.4753 21.4844 12.2539C21.3021 12.0195 21.1393 11.7591 20.9961 11.4727C20.8659 11.1862 20.8008 10.9779 20.8008 10.8477C20.8008 10.5482 21.1068 10.2227 21.7188 9.87109C22.3438 9.51953 23.1576 9.22656 24.1602 8.99219C25.1628 8.75781 26.2109 8.64062 27.3047 8.64062C29.4792 8.64062 31.1654 9.11589 32.3633 10.0664C33.5612 11.0169 34.1602 12.3516 34.1602 14.0703V21.8633C34.1602 23.3737 34.2253 24.4674 34.3555 25.1445C34.4987 25.8086 34.5703 26.1732 34.5703 26.2383C34.5703 26.5247 34.349 26.7331 33.9062 26.8633C33.4766 26.9805 33.0729 27.0391 32.6953 27.0391C32.3828 27.0391 32.1484 26.8633 31.9922 26.5117C31.849 26.1602 31.7057 25.6523 31.5625 24.9883L31.4844 24.5977C30.7682 25.3919 29.9219 26.0234 28.9453 26.4922C27.9818 26.9609 26.8815 27.1953 25.6445 27.1953ZM25.8008 24.6758C26.9466 24.6758 27.9232 24.4674 28.7305 24.0508C29.5378 23.6341 30.3711 23.0417 31.2305 22.2734V18.1719C29.5117 18.1849 28.099 18.2565 26.9922 18.3867C25.8854 18.5169 24.9154 18.849 24.082 19.3828C23.2487 19.9036 22.832 20.7174 22.832 21.8242C22.832 22.7487 23.0794 23.4583 23.5742 23.9531C24.082 24.4349 24.8242 24.6758 25.8008 24.6758ZM39.1406 27.0586C38.6068 27.0586 38.2227 27.013 37.9883 26.9219C37.7669 26.8307 37.6562 26.681 37.6562 26.4727C37.6562 26.3164 37.7474 26.1081 37.9297 25.8477L43.5547 17.7031L38.3398 9.96875C38.1706 9.70833 38.0859 9.50651 38.0859 9.36328C38.0859 9.15495 38.2031 9.00521 38.4375 8.91406C38.6719 8.82292 39.0755 8.77734 39.6484 8.77734H39.9805C40.3711 8.77734 40.6836 8.81641 40.918 8.89453C41.1523 8.95964 41.3411 9.09635 41.4844 9.30469L44.7852 14.2461C44.9805 14.5586 45.2148 14.9688 45.4883 15.4766C45.5404 15.3854 45.6315 15.2292 45.7617 15.0078C45.8919 14.7865 46.0482 14.5326 46.2305 14.2461L49.5508 9.24609C49.7591 8.93359 50.2799 8.77734 51.1133 8.77734H51.25C51.7839 8.77734 52.1615 8.82292 52.3828 8.91406C52.6042 9.00521 52.7148 9.15495 52.7148 9.36328C52.7148 9.51953 52.6237 9.72135 52.4414 9.96875L47.207 17.6055L52.8125 25.8477C53.0078 26.1341 53.1055 26.3424 53.1055 26.4727C53.1055 26.668 52.9818 26.8177 52.7344 26.9219C52.487 27.013 52.0768 27.0586 51.5039 27.0586H51.1914C50.7878 27.0586 50.4688 27.026 50.2344 26.9609C50.013 26.8828 49.8372 26.7396 49.707 26.5312L46.0156 21.0234C45.8073 20.7109 45.6445 20.4505 45.5273 20.2422C45.4102 20.0208 45.332 19.8776 45.293 19.8125C45.2669 19.8646 45.1888 20.0013 45.0586 20.2227C44.9414 20.431 44.7721 20.6979 44.5508 21.0234L40.8203 26.5703C40.599 26.8958 40.0781 27.0586 39.2578 27.0586H39.1406ZM58.5547 27.0586C57.6172 27.0586 57.1484 26.8047 57.1484 26.2969V3.73828C57.1484 3.3737 57.2331 3.11328 57.4023 2.95703C57.5716 2.78776 57.8385 2.70312 58.2031 2.70312H64.043C66.8164 2.70312 68.8997 3.19141 70.293 4.16797C71.6992 5.14453 72.4023 6.70052 72.4023 8.83594C72.4023 10.2812 72.0508 11.4987 71.3477 12.4883C70.6576 13.4648 69.681 14.2005 68.418 14.6953V14.832C69.0951 15.0664 69.6484 15.5221 70.0781 16.1992C70.5208 16.8633 71.0091 17.8529 71.543 19.168L74.2578 26.0234C74.3229 26.2578 74.3555 26.4206 74.3555 26.5117C74.3555 26.8763 73.8672 27.0586 72.8906 27.0586H72.5391C72.1875 27.0586 71.8815 27.013 71.6211 26.9219C71.3737 26.8177 71.2174 26.681 71.1523 26.5117L68.5156 19.6953C68.1771 18.8099 67.7799 18.1198 67.3242 17.625C66.8685 17.1302 66.3281 16.7852 65.7031 16.5898C65.0781 16.3945 64.2904 16.2969 63.3398 16.2969H60.2148V26.2969C60.2148 26.8047 59.7526 27.0586 58.8281 27.0586H58.5547ZM64.7852 13.6602C65.6055 13.6602 66.3542 13.4648 67.0312 13.0742C67.7214 12.6836 68.2617 12.1628 68.6523 11.5117C69.056 10.8477 69.2578 10.1445 69.2578 9.40234C69.2578 8.03516 68.8411 7.01953 68.0078 6.35547C67.1745 5.67839 66.0221 5.33984 64.5508 5.33984H60.2148V13.6602H64.7852ZM85.4297 27.1953C82.5521 27.1953 80.4102 26.4466 79.0039 24.9492C77.6107 23.4388 76.9141 21.1341 76.9141 18.0352C76.9141 14.9622 77.5977 12.6315 78.9648 11.043C80.332 9.44141 82.3438 8.64062 85 8.64062C87.3698 8.64062 89.1536 9.40885 90.3516 10.9453C91.5625 12.4818 92.168 14.7344 92.168 17.7031C92.168 17.8333 92.0964 18.0156 91.9531 18.25C91.8229 18.4714 91.6602 18.6732 91.4648 18.8555C91.2826 19.0247 91.1263 19.1094 90.9961 19.1094H80.0391C80.1823 21.0495 80.6771 22.4688 81.5234 23.3672C82.3828 24.2526 83.6719 24.6953 85.3906 24.6953C86.3542 24.6953 87.181 24.5781 87.8711 24.3438C88.5742 24.1094 89.2513 23.8229 89.9023 23.4844C89.9674 23.4583 90.0651 23.4128 90.1953 23.3477C90.3255 23.2826 90.4167 23.25 90.4688 23.25C90.612 23.25 90.7747 23.3672 90.957 23.6016C91.1523 23.8229 91.3151 24.0768 91.4453 24.3633C91.5885 24.6367 91.6602 24.8385 91.6602 24.9688C91.6602 25.2552 91.3737 25.5742 90.8008 25.9258C90.2279 26.2773 89.4596 26.5768 88.4961 26.8242C87.5456 27.0716 86.5234 27.1953 85.4297 27.1953ZM89.0625 16.6094C89.0625 12.9635 87.6758 11.1406 84.9023 11.1406C81.9206 11.1406 80.2995 12.9635 80.0391 16.6094H89.0625ZM101.387 27.1953C99.6159 27.1953 98.1836 26.7591 97.0898 25.8867C95.9961 25.0143 95.4492 23.7188 95.4492 22C95.4492 20.1901 96.0026 18.8294 97.1094 17.918C98.2161 16.9935 99.5638 16.401 101.152 16.1406C102.754 15.8672 104.694 15.7109 106.973 15.6719V14.0312C106.973 13.1589 106.673 12.4622 106.074 11.9414C105.488 11.4076 104.518 11.1406 103.164 11.1406C102.135 11.1406 101.23 11.2643 100.449 11.5117C99.681 11.7461 98.9583 12.0326 98.2812 12.3711C97.9948 12.5143 97.819 12.5859 97.7539 12.5859C97.5977 12.5859 97.4219 12.4753 97.2266 12.2539C97.0443 12.0195 96.8815 11.7591 96.7383 11.4727C96.6081 11.1862 96.543 10.9779 96.543 10.8477C96.543 10.5482 96.849 10.2227 97.4609 9.87109C98.0859 9.51953 98.8997 9.22656 99.9023 8.99219C100.905 8.75781 101.953 8.64062 103.047 8.64062C105.221 8.64062 106.908 9.11589 108.105 10.0664C109.303 11.0169 109.902 12.3516 109.902 14.0703V21.8633C109.902 23.3737 109.967 24.4674 110.098 25.1445C110.241 25.8086 110.312 26.1732 110.312 26.2383C110.312 26.5247 110.091 26.7331 109.648 26.8633C109.219 26.9805 108.815 27.0391 108.438 27.0391C108.125 27.0391 107.891 26.8633 107.734 26.5117C107.591 26.1602 107.448 25.6523 107.305 24.9883L107.227 24.5977C106.51 25.3919 105.664 26.0234 104.688 26.4922C103.724 26.9609 102.624 27.1953 101.387 27.1953ZM101.543 24.6758C102.689 24.6758 103.665 24.4674 104.473 24.0508C105.28 23.6341 106.113 23.0417 106.973 22.2734V18.1719C105.254 18.1849 103.841 18.2565 102.734 18.3867C101.628 18.5169 100.658 18.849 99.8242 19.3828C98.9909 19.9036 98.5742 20.7174 98.5742 21.8242C98.5742 22.7487 98.8216 23.4583 99.3164 23.9531C99.8242 24.4349 100.566 24.6758 101.543 24.6758ZM121.23 27.1953C119.876 27.1953 118.691 26.8047 117.676 26.0234C116.66 25.2292 115.872 24.1289 115.312 22.7227C114.766 21.3164 114.492 19.7214 114.492 17.9375C114.492 15.9714 114.785 14.2917 115.371 12.8984C115.97 11.4922 116.803 10.431 117.871 9.71484C118.939 8.9987 120.169 8.64062 121.562 8.64062C122.565 8.64062 123.451 8.79036 124.219 9.08984C125 9.38932 125.768 9.82552 126.523 10.3984V1.64844C126.523 1.14062 126.979 0.886719 127.891 0.886719H128.047C128.971 0.886719 129.434 1.14062 129.434 1.64844V21.8633C129.434 23.3737 129.505 24.4674 129.648 25.1445C129.792 25.8086 129.863 26.1732 129.863 26.2383C129.863 26.5247 129.642 26.7331 129.199 26.8633C128.77 26.9805 128.366 27.0391 127.988 27.0391C127.728 27.0391 127.52 26.9154 127.363 26.668C127.207 26.4206 127.096 26.1732 127.031 25.9258C126.979 25.6654 126.888 25.2227 126.758 24.5977C125.104 26.3294 123.262 27.1953 121.23 27.1953ZM121.836 24.6758C122.604 24.6758 123.398 24.4674 124.219 24.0508C125.052 23.6341 125.82 23.0417 126.523 22.2734V12.7617C125.273 11.7201 123.848 11.1992 122.246 11.1992C120.697 11.2383 119.525 11.8047 118.73 12.8984C117.949 13.9922 117.559 15.5807 117.559 17.6641C117.559 19.9036 117.923 21.6354 118.652 22.8594C119.395 24.0703 120.456 24.6758 121.836 24.6758ZM137.207 34.2266C136.452 34.2266 136.074 34.0378 136.074 33.6602C136.074 33.569 136.126 33.3802 136.23 33.0938L139.141 26.0234L133.066 9.8125C133.053 9.76042 133.034 9.6888 133.008 9.59766C132.982 9.49349 132.969 9.41536 132.969 9.36328C132.969 9.18099 133.092 9.03776 133.34 8.93359C133.587 8.82943 133.965 8.77734 134.473 8.77734H134.746C135.527 8.77734 135.99 8.95964 136.133 9.32422L139.668 18.7383C139.98 19.5586 140.352 20.724 140.781 22.2344H140.84L141.25 20.9453C141.315 20.75 141.426 20.418 141.582 19.9492C141.738 19.4674 141.882 19.0638 142.012 18.7383L145.469 9.32422C145.586 8.95964 146.061 8.77734 146.895 8.77734H147.012C147.923 8.77734 148.379 8.97266 148.379 9.36328C148.379 9.45443 148.346 9.61068 148.281 9.83203L139.375 33.5039C139.167 33.9857 138.62 34.2266 137.734 34.2266H137.207ZM152.227 27.0586C151.745 27.0586 151.393 27 151.172 26.8828C150.951 26.7526 150.84 26.5573 150.84 26.2969V24.0117C150.84 23.5039 151.302 23.25 152.227 23.25H152.812C153.737 23.25 154.199 23.5039 154.199 24.0117V26.2969C154.199 26.5573 154.089 26.7526 153.867 26.8828C153.646 27 153.294 27.0586 152.812 27.0586H152.227ZM166.328 27.1953C163.451 27.1953 161.302 26.4596 159.883 24.9883C158.477 23.5039 157.773 21.1211 157.773 17.8398C157.773 14.5195 158.561 12.1562 160.137 10.75C161.712 9.34375 163.672 8.64062 166.016 8.64062C166.888 8.64062 167.728 8.71875 168.535 8.875C169.342 9.01823 169.993 9.21354 170.488 9.46094C170.983 9.70833 171.23 9.96875 171.23 10.2422C171.23 10.4245 171.165 10.6654 171.035 10.9648C170.918 11.2643 170.768 11.5312 170.586 11.7656C170.417 11.987 170.26 12.0977 170.117 12.0977C170.078 12.0977 170.02 12.0846 169.941 12.0586C169.863 12.0195 169.792 11.987 169.727 11.9609C168.555 11.4141 167.292 11.1406 165.938 11.1406C164.336 11.1406 163.099 11.668 162.227 12.7227C161.354 13.7643 160.918 15.444 160.918 17.7617C160.918 19.4023 161.094 20.7305 161.445 21.7461C161.797 22.7487 162.363 23.4909 163.145 23.9727C163.939 24.4544 164.993 24.6953 166.309 24.6953C167.754 24.6953 169.056 24.3958 170.215 23.7969C170.332 23.7708 170.417 23.7448 170.469 23.7188C170.534 23.6797 170.579 23.6602 170.605 23.6602C170.749 23.6602 170.911 23.7708 171.094 23.9922C171.276 24.2135 171.432 24.4674 171.562 24.7539C171.706 25.0404 171.777 25.2682 171.777 25.4375C171.777 25.7109 171.53 25.9844 171.035 26.2578C170.54 26.5312 169.87 26.7591 169.023 26.9414C168.19 27.1107 167.292 27.1953 166.328 27.1953ZM182.773 27.1953C180.156 27.1953 178.158 26.4141 176.777 24.8516C175.41 23.276 174.727 20.9909 174.727 17.9961C174.727 15.0013 175.423 12.6966 176.816 11.082C178.21 9.45443 180.195 8.64062 182.773 8.64062C185.326 8.64062 187.279 9.44792 188.633 11.0625C189.987 12.6641 190.664 14.9753 190.664 17.9961C190.664 21.0039 189.993 23.2891 188.652 24.8516C187.324 26.4141 185.365 27.1953 182.773 27.1953ZM182.676 24.6953C184.368 24.6953 185.618 24.1484 186.426 23.0547C187.233 21.9479 187.637 20.2422 187.637 17.9375C187.637 15.6198 187.233 13.9076 186.426 12.8008C185.618 11.694 184.368 11.1406 182.676 11.1406C180.996 11.1406 179.759 11.694 178.965 12.8008C178.171 13.8945 177.773 15.6068 177.773 17.9375C177.773 20.2552 178.164 21.9609 178.945 23.0547C179.74 24.1484 180.983 24.6953 182.676 24.6953ZM204.102 27.0586C203.62 27.0586 203.268 27 203.047 26.8828C202.826 26.7526 202.715 26.5573 202.715 26.2969V24.0117C202.715 23.5039 203.177 23.25 204.102 23.25H204.688C205.612 23.25 206.074 23.5039 206.074 24.0117V26.2969C206.074 26.5573 205.964 26.7526 205.742 26.8828C205.521 27 205.169 27.0586 204.688 27.0586H204.102Z" fill="#003049"/>
<path d="M216.113 27.1953C214.342 27.1953 212.956 26.7005 211.953 25.7109C210.951 24.7083 210.449 23.3281 210.449 21.5703V9.53906C210.449 9.03125 210.918 8.77734 211.855 8.77734H211.992C212.917 8.77734 213.379 9.03125 213.379 9.53906V21.2969C213.379 22.3646 213.685 23.1979 214.297 23.7969C214.922 24.3828 215.794 24.6758 216.914 24.6758C217.695 24.6758 218.477 24.4609 219.258 24.0312C220.039 23.5885 220.716 22.9896 221.289 22.2344V9.53906C221.289 9.03125 221.751 8.77734 222.676 8.77734H222.812C223.75 8.77734 224.219 9.03125 224.219 9.53906V21.8633C224.219 23.3737 224.284 24.4674 224.414 25.1445C224.544 25.8086 224.609 26.1732 224.609 26.2383C224.609 26.5247 224.395 26.7331 223.965 26.8633C223.535 26.9805 223.132 27.0391 222.754 27.0391C222.428 27.0391 222.188 26.8568 222.031 26.4922C221.875 26.1146 221.758 25.7305 221.68 25.3398C221.615 24.9492 221.569 24.7018 221.543 24.5977C220.814 25.418 219.967 26.056 219.004 26.5117C218.053 26.9674 217.09 27.1953 216.113 27.1953ZM231.855 27.0586C230.918 27.0586 230.449 26.8047 230.449 26.2969V1.64844C230.449 1.14062 230.918 0.886719 231.855 0.886719H231.992C232.917 0.886719 233.379 1.14062 233.379 1.64844V17.1758H233.516L240.156 9.24609C240.404 8.93359 241.016 8.77734 241.992 8.77734H242.109C242.513 8.77734 242.819 8.81641 243.027 8.89453C243.236 8.97266 243.34 9.07682 243.34 9.20703C243.34 9.40234 243.223 9.63672 242.988 9.91016L236.523 17.5469L243.691 26.0234C243.887 26.2448 243.984 26.4271 243.984 26.5703C243.984 26.7656 243.874 26.8958 243.652 26.9609C243.431 27.026 243.04 27.0586 242.48 27.0586H242.324C241.842 27.0586 241.452 27.0326 241.152 26.9805C240.853 26.9284 240.618 26.8047 240.449 26.6094L233.516 18.3672H233.379V26.2969C233.379 26.8047 232.917 27.0586 231.992 27.0586H231.855Z" fill="#003049" fill-opacity="0.5"/>
</svg>
