<svg width="50" height="50" viewBox="0 0 50 50" fill="none" xmlns="http://www.w3.org/2000/svg">
<g clip-path="url(#clip0_1_2407)">
<circle cx="25" cy="25" r="25" fill="#002266"/>
<path d="M21.1312 32.275L22.5032 35.1439L25.6016 34.4278L24.2141 37.2893L26.7057 39.2652L23.6034 39.9644L23.6121 43.1445L21.1312 41.155L18.6503 43.1445L18.659 39.9644L15.5566 39.2652L18.0483 37.2893L16.6606 34.4278L19.7592 35.1439L21.1312 32.275Z" fill="#EEEEEE"/>
<path d="M39.3834 37.7119L40.0694 39.1464L41.6187 38.7883L40.9248 40.219L42.1707 41.207L40.6195 41.5566L40.6238 43.1467L39.3834 42.1519L38.143 43.1467L38.1473 41.5566L36.5962 41.207L37.842 40.219L37.1482 38.7883L38.6974 39.1464L39.3834 37.7119Z" fill="#EEEEEE"/>
<path d="M33.0012 22.4945L33.6871 23.9291L35.2363 23.5709L34.5426 25.0017L35.7884 25.9897L34.2373 26.3393L34.2415 27.9293L33.0012 26.9345L31.7607 27.9293L31.7649 26.3393L30.2139 25.9897L31.4597 25.0017L30.7659 23.5709L32.3151 23.9291L33.0012 22.4945Z" fill="#EEEEEE"/>
<path d="M39.3834 13.7988L40.0694 15.2334L41.6187 14.8753L40.9249 16.3061L42.1706 17.2939L40.6195 17.6437L40.6238 19.2337L39.3834 18.2389L38.143 19.2337L38.1473 17.6437L36.5962 17.2939L37.8419 16.3061L37.1482 14.8753L38.6974 15.2334L39.3834 13.7988Z" fill="#EEEEEE"/>
<path d="M44.9577 20.3206L45.6437 21.7552L47.1929 21.397L46.4991 22.8277L47.7449 23.8157L46.1938 24.1654L46.198 25.7554L44.9577 24.7607L43.7173 25.7554L43.7215 24.1654L42.1704 23.8157L43.4162 22.8277L42.7225 21.397L44.2716 21.7552L44.9577 20.3206Z" fill="#EEEEEE"/>
<path d="M40.9719 27.9293L41.5114 29.59H43.2577L41.8449 30.6165L42.3847 32.2771L40.9719 31.2508L39.5592 32.2771L40.0987 30.6165L38.686 29.59H40.4322L40.9719 27.9293Z" fill="#EEEEEE"/>
<path d="M7.32249 42.6777C2.79838 38.1536 0.000164974 31.9036 0.000165577 25C0.000166784 11.197 11.1864 0.00667685 24.9878 1.37821e-05C24.9919 1.37824e-05 24.9961 9.9681e-06 25.0002 9.96846e-06C25.0043 9.96882e-06 25.0084 1.37839e-05 25.0125 1.37842e-05C31.5137 0.00315385 37.4346 2.48785 41.8794 6.55824L31.2501 17.1875L31.2501 18.75L28.1251 21.875L21.8751 21.875L21.8751 28.125L7.32249 42.6777Z" fill="#EEEEEE"/>
<path d="M5.13364 40.1787C3.13074 37.5613 1.63342 34.5364 0.78756 31.25L14.0624 31.25L5.13364 40.1787Z" fill="url(#paint0_linear_1_2407)"/>
<path d="M5.13365 9.82122C3.13074 12.4387 1.63343 15.4636 0.787561 18.75L14.0624 18.75L5.13365 9.82122Z" fill="url(#paint1_linear_1_2407)"/>
<path d="M9.82114 5.13372L18.7499 14.0625L18.7499 0.787603C15.4635 1.63347 12.4386 3.1308 9.82114 5.13372Z" fill="url(#paint2_linear_1_2407)"/>
<path d="M31.2499 0.787578L31.2499 14.0625L40.1787 5.13368C37.5612 3.13076 34.5363 1.63344 31.2499 0.787578Z" fill="url(#paint3_linear_1_2407)"/>
<path d="M0.193509 21.875C0.0658498 22.8987 9.19185e-05 23.9417 9.18259e-05 25C9.17334e-05 26.0583 0.0658494 27.1013 0.193508 28.125L21.875 28.125L28.125 21.875L28.125 0.193408C27.1053 0.0662485 26.0665 0.00050781 25.0124 -1.54435e-06C25.0083 -1.54471e-06 25.0042 -5.35977e-06 25.0001 -5.36013e-06C24.996 -5.36049e-06 24.9919 -1.54615e-06 24.9878 -1.54651e-06C23.9337 0.000507623 22.8948 0.0662519 21.875 0.193419L21.875 21.875L0.193509 21.875Z" fill="#D80027"/>
<path d="M5.82867 8.95362L15.625 18.75L18.75 18.75L7.32239 7.32235C6.80102 7.84373 6.30256 8.38804 5.82867 8.95362Z" fill="#D80027"/>
<path d="M41.0465 5.82857L31.25 15.625L31.25 18.75L42.6777 7.3223C42.1564 6.80092 41.6121 6.30247 41.0465 5.82857Z" fill="#D80027"/>
</g>
<defs>
<linearGradient id="paint0_linear_1_2407" x1="20.4831" y1="40.1787" x2="20.4831" y2="0.787577" gradientUnits="userSpaceOnUse">
<stop stop-color="#0052B4"/>
<stop offset="0.86" stop-color="#00244E"/>
</linearGradient>
<linearGradient id="paint1_linear_1_2407" x1="20.4831" y1="40.1787" x2="20.4831" y2="0.787577" gradientUnits="userSpaceOnUse">
<stop stop-color="#0052B4"/>
<stop offset="0.86" stop-color="#00244E"/>
</linearGradient>
<linearGradient id="paint2_linear_1_2407" x1="20.4831" y1="40.1787" x2="20.4831" y2="0.787577" gradientUnits="userSpaceOnUse">
<stop stop-color="#0052B4"/>
<stop offset="0.86" stop-color="#00244E"/>
</linearGradient>
<linearGradient id="paint3_linear_1_2407" x1="20.4831" y1="40.1787" x2="20.4831" y2="0.787577" gradientUnits="userSpaceOnUse">
<stop stop-color="#0052B4"/>
<stop offset="0.86" stop-color="#00244E"/>
</linearGradient>
<clipPath id="clip0_1_2407">
<rect width="50" height="50" fill="white"/>
</clipPath>
</defs>
</svg>
